<?xml version="1.0" encoding="utf-8"?>
<!-- Generator: Adobe Illustrator 23.0.3, SVG Export Plug-In . SVG Version: 6.00 Build 0)  -->
<svg version="1.1" id="Layer_1" xmlns="http://www.w3.org/2000/svg" xmlns:xlink="http://www.w3.org/1999/xlink" x="0px" y="0px"
	 viewBox="0 0 24 24" style="enable-background:new 0 0 24 24;" xml:space="preserve">
<style type="text/css">
	.st0{fill:#ED6524;}
</style>
<g>
	<path class="st0" d="M6.6,7.3C6.7,7.2,6.7,7,6.8,6.8C7.4,6.2,8,5.6,8.9,5.7c0.8-0.1,1.4,0.6,1.9,1.1C10.9,7,11,7.2,11,7.4
		c0,0.5,0,1.1-0.1,1.5l0,0c-0.3,0.6-0.9,1-1.4,1.4l0,0c0,1.3,0,2.7,0,4l0,0c1.3-0.5,2.7-0.5,4-0.8c0.7-0.1,0.9-0.8,1.2-1.3l0,0
		c-0.5-0.4-1.2-0.8-1.5-1.5C13,10.3,13,9.7,13,9.2c0.1-0.2,0.1-0.4,0.2-0.5c0.6-0.6,1.2-1.3,2.1-1.1c0.8-0.1,1.4,0.6,1.9,1.1
		c0.1,0.2,0.1,0.4,0.2,0.6c0,0.5,0,1-0.1,1.5l0,0c-0.3,0.5-0.8,0.9-1.2,1.4l0,0c-0.5,0.7-0.4,1.8-1.3,2.3c-1.6,1-3.6,0.6-5.3,1.4
		l0,0c0.8,0.5,1.7,1.3,1.5,2.4c0,0.8-0.6,1.4-1.2,1.9c-0.1,0.1-0.3,0.1-0.4,0.2c-0.4,0-0.9,0-1.3,0c-0.2-0.1-0.3-0.1-0.5-0.2
		c-0.5-0.5-1.2-1-1.1-1.8c-0.2-1.1,0.8-1.9,1.6-2.5l0,0c0-1.8,0-3.7,0-5.5l0,0C7.7,9.9,7.2,9.6,6.8,9C6.5,8.5,6.6,7.9,6.6,7.3z
		 M8.5,7.7C7.8,7.9,9,9,9.1,8.3C9.6,7.9,8.9,7.2,8.5,7.7z M14.9,9.5c-0.5,0.3,0.2,1.2,0.6,0.6C16.1,9.7,15.2,9.1,14.9,9.5z
		 M8.5,17.8c-0.6,0.5,0.5,1.1,0.8,0.5C9.3,17.8,8.9,17.3,8.5,17.8z"/>
</g>
</svg>
