<?xml version="1.0" encoding="utf-8"?>
<!-- Generator: Adobe Illustrator 23.0.3, SVG Export Plug-In . SVG Version: 6.00 Build 0)  -->
<svg version="1.1" id="Layer_1" xmlns="http://www.w3.org/2000/svg" xmlns:xlink="http://www.w3.org/1999/xlink" x="0px" y="0px"
	 viewBox="0 0 24 24" style="enable-background:new 0 0 24 24;" xml:space="preserve">
<style type="text/css">
	.st0{fill:#ED6524;}
	.st1{fill:#FFFFFF;}
</style>
<g>
	<g>
		<path class="st0" d="M6.3,5.7c0.9-0.2,1.9-0.1,2.9-0.1c2.7,0,5.3-0.1,8,0c0.9,0,1.3,1,1.2,1.8c0,3.3,0.1,6.5,0,9.8
			c0,0.8-0.7,1.2-1.4,1.2c-3.2,0-6.4,0-9.5,0c-0.8,0.1-1.8-0.3-1.8-1.2c-0.1-3.2,0-6.3,0-9.5C5.6,7,5.5,6,6.3,5.7z M11.4,11.5
			c0,1.6,0,3.1-0.1,4.7c-0.2,0-0.6,0.1-0.8,0.2c-0.1-0.2-0.4-0.5-0.5-0.6c-0.3,0.1-0.8,0.5-1.1,0.6c0.5,0.4,0.9,1.1,1.6,1.1
			c0.8,0.1,1.4-0.4,2-0.8c0-1.7,0-3.4,0.1-5.1C12.2,11.5,11.8,11.5,11.4,11.5z M14.2,11.8c-0.7,0.4-0.6,1.3-0.6,2
			c0.9,0.8,2.1,1.2,2.8,2.2c-0.3,0.1-0.8,0.3-1.1,0.3c-0.7-0.3-1.4-0.7-2.2-0.2c0.7,1.3,2.6,1.8,3.8,0.8c0.6-0.4,0.5-1.3,0.5-1.9
			c-0.8-0.7-1.9-1.3-2.8-1.8c0.3-0.8,1.1-0.6,1.7-0.2c0.3-0.2,0.6-0.4,0.9-0.6C16.4,11.5,15.2,11.1,14.2,11.8z"/>
	</g>
	<path class="st1" d="M11.4,11.5c0.4,0,0.8,0,1.2,0c0,1.7,0,3.4-0.1,5.1c-0.6,0.5-1.2,1-2,0.8c-0.7,0-1.1-0.7-1.6-1.1
		c0.3-0.1,0.8-0.5,1.1-0.6c0.1,0.2,0.4,0.5,0.5,0.6c0.2,0,0.6-0.1,0.8-0.2C11.4,14.6,11.4,13,11.4,11.5z"/>
	<path class="st1" d="M14.2,11.8c0.9-0.7,2.2-0.3,2.9,0.6c-0.3,0.2-0.6,0.4-0.9,0.6c-0.6-0.5-1.3-0.6-1.7,0.2c1,0.6,2,1.1,2.8,1.8
		c-0.1,0.7,0.1,1.5-0.5,1.9c-1.2,1-3,0.5-3.8-0.8c0.8-0.5,1.5-0.1,2.2,0.2c0.3-0.1,0.8-0.3,1.1-0.3c-0.7-1-2-1.4-2.8-2.2
		C13.7,13.1,13.5,12.2,14.2,11.8z"/>
</g>
</svg>
