<?xml version="1.0" encoding="utf-8"?>
<!-- Generator: Adobe Illustrator 23.0.3, SVG Export Plug-In . SVG Version: 6.00 Build 0)  -->
<svg version="1.1" id="Layer_1" xmlns="http://www.w3.org/2000/svg" xmlns:xlink="http://www.w3.org/1999/xlink" x="0px" y="0px"
	 viewBox="0 0 24 24" style="enable-background:new 0 0 24 24;" xml:space="preserve">
<style type="text/css">
	.st0{fill:#ED6524;}
</style>
<g>
	<g>
		<path class="st0" d="M5.6,5.6C6.2,5.2,7,5.3,7.8,5.2c2.7,0,5.4,0,8.2,0c0.8,0,1.7-0.1,2.5,0.3c0.4,0.7,0.3,1.5,0.3,2.2
			c0,2.5,0,5.1,0,7.6c-4.5,0-9,0-13.5,0c0-2.5,0-5.1,0-7.6C5.3,7,5.2,6.2,5.6,5.6z M7,6.9c0,2.2,0,4.5,0,6.7c3.4,0,6.7,0,10.1,0
			c0-2.2,0-4.5,0-6.7C13.7,6.9,10.3,6.9,7,6.9z"/>
	</g>
	<path class="st0" d="M10.3,8.6c0.4-0.2,0.8,0,1.2,0.2c-0.3,0.5-0.7,1-1.1,1.5c0.4,0.5,0.7,1,1.1,1.5c-0.4,0.1-0.8,0.5-1.2,0.2
		c-0.7-0.5-1.2-1.1-1.7-1.7C9.1,9.7,9.6,9,10.3,8.6z"/>
	<path class="st0" d="M12.5,8.8c0.4-0.1,0.8-0.5,1.2-0.2c0.7,0.5,1.2,1.1,1.7,1.7c-0.6,0.6-1.2,1.5-2,1.8c-0.3-0.1-0.6-0.2-0.9-0.3
		c0.3-0.5,0.7-1,1.1-1.5C13.2,9.8,12.9,9.3,12.5,8.8z"/>
	<path class="st0" d="M3.5,16.3c1.8-0.1,3.6-0.1,5.5-0.1c1.1,0,2,0.8,3.1,0.9c1.1-0.1,2-0.9,3.1-0.9c1.8,0,3.6,0,5.5,0.1
		c-0.2,0.9-0.3,2.3-1.5,2.4c-3.2,0.2-6.3,0-9.5,0.1c-1.6-0.1-3.3,0.2-4.9-0.2C3.6,18.2,3.7,17.1,3.5,16.3z"/>
</g>
</svg>
