<?xml version="1.0" encoding="utf-8"?>
<!-- Generator: Adobe Illustrator 23.0.3, SVG Export Plug-In . SVG Version: 6.00 Build 0)  -->
<svg version="1.1" id="Layer_1" xmlns="http://www.w3.org/2000/svg" xmlns:xlink="http://www.w3.org/1999/xlink" x="0px" y="0px"
	 viewBox="0 0 24 24" style="enable-background:new 0 0 24 24;" xml:space="preserve">
<style type="text/css">
	.st0{fill:#ED6524;}
	.st1{fill:#FFFFFF;}
</style>
<g>
	<g>
		<path class="st0" d="M10.2,6.03c0.59-0.21,1.17-0.47,1.8-0.55c0.63,0.07,1.21,0.34,1.8,0.55C15.19,6.57,16.63,7,18,7.6
			c-0.05,2.69-0.63,5.33-0.78,8.01c-1.72,1.01-3.45,2.01-5.23,2.91c-1.77-0.92-3.51-1.89-5.22-2.91C6.64,12.92,6.05,10.28,6,7.6
			C7.37,7,8.81,6.57,10.2,6.03z M11.86,7.19c-0.77,1.64-1.47,3.32-2.23,4.96c-0.45,1.09-1.05,2.13-1.39,3.27
			c0.45,0,0.9-0.01,1.36-0.03c0.25-0.61,0.51-1.22,0.77-1.84c1.09-0.04,2.17-0.04,3.26,0c0.27,0.61,0.52,1.22,0.77,1.84
			c0.45,0.01,0.91,0.02,1.36,0.02c-0.34-1.14-0.94-2.17-1.39-3.26c-0.77-1.64-1.46-3.32-2.23-4.96C12.07,7.19,11.93,7.19,11.86,7.19
			z"/>
	</g>
	<g>
		<path class="st1" d="M11.86,7.19c0.07,0,0.21,0,0.28,0c0.77,1.64,1.46,3.32,2.23,4.96c0.45,1.09,1.05,2.13,1.39,3.26
			c-0.45,0-0.91-0.01-1.36-0.02c-0.25-0.62-0.51-1.23-0.77-1.84c-1.09-0.04-2.17-0.04-3.26,0c-0.26,0.61-0.52,1.22-0.77,1.84
			c-0.45,0.01-0.9,0.02-1.36,0.03c0.34-1.14,0.94-2.17,1.39-3.27C10.4,10.51,11.09,8.83,11.86,7.19z M10.89,12.35
			c0.74,0,1.48,0,2.23,0c-0.33-0.83-0.66-1.67-1.12-2.45C11.54,10.68,11.22,11.52,10.89,12.35z"/>
	</g>
	<path class="st0" d="M10.89,12.35c0.34-0.83,0.66-1.67,1.11-2.45c0.46,0.78,0.78,1.62,1.12,2.45
		C12.37,12.35,11.63,12.35,10.89,12.35z"/>
</g>
</svg>
