<?xml version="1.0" encoding="utf-8"?>
<!-- Generator: Adobe Illustrator 23.0.3, SVG Export Plug-In . SVG Version: 6.00 Build 0)  -->
<svg version="1.1" id="Layer_1" xmlns="http://www.w3.org/2000/svg" xmlns:xlink="http://www.w3.org/1999/xlink" x="0px" y="0px"
	 viewBox="0 0 24 24" style="enable-background:new 0 0 24 24;" xml:space="preserve">
<style type="text/css">
	.st0{fill:#ED6524;}
	.st1{fill:#FFFFFF;}
</style>
<g>
	<g>
		<path class="st0" d="M4,5.5C6.1,4.6,8.6,5,10.2,6.6c2.7-0.5,5.5,0.1,7.7,1.6c1.2,0.9,2.1,2.3,2,3.8c0.1,1.5-0.9,2.9-2.1,3.8
			c-2.2,1.5-5.1,2.1-7.7,1.6c-1.6,1.6-4.1,2-6.2,1.1c0.9-0.9,1.6-1.9,1.7-3.2c-0.7-1-1.5-2.1-1.4-3.3c0-1.3,0.7-2.4,1.4-3.3
			C5.7,7.4,4.9,6.4,4,5.5z M7.7,9.1c-1.1,0.7-2.1,2-1.7,3.4c0.1,0.9,0.8,1.5,1.4,2.1c0,1-0.2,1.9-0.5,2.8c1.1-0.3,2.1-0.9,2.9-1.7
			c2.6,0.6,5.7,0.2,7.8-1.6c0.9-0.8,1.2-2.1,0.8-3.2c-0.3-1-1.2-1.6-2.1-2.1C13.7,7.4,10.2,7.6,7.7,9.1z"/>
	</g>
	<g>
		<path class="st1" d="M7.7,9.1c2.6-1.6,6-1.7,8.6-0.2C17.1,9.4,18,10,18.4,11c0.3,1.1,0.1,2.5-0.8,3.2c-2.1,1.8-5.1,2.2-7.8,1.6
			c-0.8,0.8-1.8,1.5-2.9,1.7c0.3-0.9,0.5-1.9,0.5-2.8c-0.6-0.6-1.3-1.2-1.4-2.1C5.6,11.2,6.5,9.8,7.7,9.1z M8.8,11.2
			c-1.3,0.3-0.4,2.4,0.8,1.7C10.7,12.4,9.9,10.6,8.8,11.2z M11.9,11c-0.2,0.2-0.5,0.5-0.7,0.6c0.1,0.4,0,0.9,0.3,1.1
			c0.5,0.5,1.7,0.1,1.5-0.7C13.2,11.3,12.4,11.2,11.9,11z M14.7,11.2c-0.7,0.1-0.8,1.5-0.1,1.6c0.7,0.5,1.7-0.4,1.3-1.1
			C15.9,11.1,15.2,11,14.7,11.2z"/>
	</g>
	<path class="st0" d="M8.8,11.2c1.1-0.5,1.9,1.2,0.8,1.7C8.5,13.6,7.5,11.5,8.8,11.2z"/>
	<path class="st0" d="M11.9,11c0.5,0.2,1.3,0.3,1.2,1c0.2,0.8-1,1.3-1.5,0.7c-0.3-0.2-0.2-0.8-0.3-1.1C11.4,11.5,11.7,11.2,11.9,11z
		"/>
	<path class="st0" d="M14.7,11.2c0.5-0.2,1.2-0.1,1.3,0.5c0.3,0.7-0.6,1.6-1.3,1.1C14,12.7,14,11.3,14.7,11.2z"/>
</g>
</svg>
