<?xml version="1.0" encoding="utf-8"?>
<!-- Generator: Adobe Illustrator 23.0.3, SVG Export Plug-In . SVG Version: 6.00 Build 0)  -->
<svg version="1.1" id="Layer_1" xmlns="http://www.w3.org/2000/svg" xmlns:xlink="http://www.w3.org/1999/xlink" x="0px" y="0px"
	 viewBox="0 0 24 24" style="enable-background:new 0 0 24 24;" xml:space="preserve">
<style type="text/css">
	.st0{fill:#ED6524;}
</style>
<g>
	<path class="st0" d="M11.37,4.92c0.42,0,0.85,0.01,1.27,0.02c0.05,0.31,0.11,0.63,0.16,0.94C13.2,6.02,13.6,6.15,14,6.29
		c-0.29,0.3-0.59,0.6-0.89,0.89c-0.69-0.05-1.38-0.07-2.06-0.03c0.56,0.67,1.47,0.68,2.23,0.98c0.69,0.23,1.1,1.05,0.86,1.75
		c-0.12,0.68-0.83,0.92-1.35,1.23c-0.04,0.21-0.12,0.61-0.16,0.82c-0.43,0-0.85,0-1.28-0.01c-0.03-0.22-0.09-0.65-0.12-0.87
		c-0.41-0.17-0.82-0.35-1.22-0.52c0.3-0.29,0.61-0.58,0.91-0.86c0.67,0.06,1.35,0.08,2.03,0.04c-0.79-1.01-2.64-0.5-3.08-1.87
		c-0.35-1,0.49-1.75,1.34-2.07C11.27,5.48,11.32,5.2,11.37,4.92z"/>
	<path class="st0" d="M6.06,15.5c0.9-0.69,1.76-1.66,2.96-1.71c1.5-0.09,3-0.07,4.5-0.03c0.74-0.09,1.01,0.69,1.35,1.18
		c-0.92,0.68-2.08,0.56-3.16,0.6c-0.37-0.16-0.98,0.64-0.42,0.71c1.29,0.3,2.67,0.16,3.98,0.07c1.4-0.51,2.28-1.89,3.63-2.51
		c0.82-0.32,1.51,0.88,0.82,1.42c-1.28,1.19-2.69,2.24-4.06,3.32c-0.76,0.66-1.81,0.48-2.73,0.51c-2.87-0.06-5.74,0.06-8.6-0.05
		c-0.58-0.9-0.21-2.18-0.22-3.22C4.55,15.25,5.43,15.62,6.06,15.5z"/>
</g>
</svg>
